<?xml version="1.0" standalone="no"?><!DOCTYPE svg PUBLIC "-//W3C//DTD SVG 1.1//EN" "http://www.w3.org/Graphics/SVG/1.1/DTD/svg11.dtd"><svg class="icon" width="200px" height="200.00px" viewBox="0 0 1024 1024" version="1.1" xmlns="http://www.w3.org/2000/svg"><path fill="#333333" d="M890.313 780.264c-12.506-17.114-26.494-37.516-41.958-61.213-15.471-23.693-30.114-49.854-43.937-78.484-13.821-28.63-25.668-58.907-35.542-90.83-9.872-31.922-14.808-64.336-14.808-97.248 0-32.248-4.44-61.533-13.326-87.864-8.889-26.325-20.732-49.689-35.542-70.097-14.809-20.4-32.251-37.513-52.328-51.334-20.074-13.82-41.298-24.355-63.677-31.595 4.608-7.24 8.229-15.299 10.861-24.184 2.631-8.892 3.947-17.939 3.947-27.15 0-26.986-9.218-49.696-27.646-68.126-18.424-18.429-41.134-27.641-68.12-27.641s-49.689 9.212-68.12 27.641c-18.429 18.43-27.641 41.14-27.641 68.126 0 18.429 5.263 36.198 15.792 53.312-21.063 7.241-41.299 17.77-60.717 31.589-19.412 13.827-36.524 30.606-51.334 50.352-14.809 19.745-26.823 42.783-36.039 69.107-9.213 26.332-13.822 55.95-13.822 88.854 0 34.229-4.937 66.968-14.81 98.234-9.872 31.263-21.552 60.88-35.045 88.854-13.495 27.969-27.81 54.135-42.948 78.484-15.136 24.354-28.301 46.404-39.491 66.149-7.238 11.188-8.719 20.569-4.443 28.139 4.279 7.568 11.023 11.354 20.241 11.354l720.704 0c3.946 0 7.895-1.153 11.844-3.457 3.952-2.306 7.239-5.429 9.872-9.377 2.637-3.952 4.117-8.721 4.444-14.315C897.057 791.943 894.921 786.188 890.313 780.264zM535.887 186.918c-7.24 7.24-16.125 11.189-26.658 11.849l-1.978 0c-10.528 0-19.412-3.785-26.652-11.352-7.241-7.574-10.861-16.622-10.861-27.15 0-11.189 3.621-20.407 10.861-27.647s16.452-10.861 27.641-10.861c11.189 0 20.407 3.621 27.647 10.861s10.855 16.458 10.855 27.647C546.742 170.793 543.127 179.678 535.887 186.918zM512.001 959.502c51.228 0 92.757-41.528 92.757-92.756L419.245 866.746C419.245 917.975 460.773 959.502 512.001 959.502z" /></svg>